<svg width="24" height="24" viewBox="0 0 24 24" fill="none" xmlns="http://www.w3.org/2000/svg">
<path fill-rule="evenodd" clip-rule="evenodd" d="M10.22 3.26972C10.7005 1.57676 13.316 1.57676 13.7966 3.26972L14.844 6.95949L14.3329 7.02766C12.8127 7.23041 11.3875 7.23399 9.69006 7.05564L9.16106 7.00006L10.22 3.26972ZM15.194 8.19275L16.5548 12.9866L16.0935 13.0859C13.3036 13.6861 11.1873 13.6955 7.9233 13.1919L7.42523 13.1151L8.80937 8.23902L9.2117 8.28548C11.2537 8.5213 12.9354 8.52173 14.7804 8.253L15.194 8.19275ZM16.9046 14.2187L17.8718 17.6261L20.5568 18.1319C21.1059 18.2353 21.1603 18.9367 20.6327 19.1107L11.9591 21.9701C11.8349 22.011 11.6989 22.0099 11.5755 21.967L3.35818 19.1075C2.8417 18.9278 2.89745 18.2403 3.43727 18.133L6.1542 17.5927L7.07455 14.3505L7.49282 14.4166C11.0316 14.976 13.3636 14.9862 16.4654 14.3139L16.9046 14.2187Z" fill="#FF0000"/>
</svg>
