<svg width="24" height="24" viewBox="0 0 24 24" fill="none" xmlns="http://www.w3.org/2000/svg">
<path d="M11.4697 16.5303C11.1768 16.2374 11.1768 15.7626 11.4697 15.4697L14.1893 12.75H7C6.58579 12.75 6.25 12.4142 6.25 12C6.25 11.5858 6.58579 11.25 7 11.25H14.1893L11.4697 8.53032C11.1768 8.23743 11.1768 7.76256 11.4697 7.46966C11.7626 7.17677 12.2374 7.17677 12.5303 7.46966L16.5303 11.4697C16.675 11.6144 16.7482 11.8034 16.75 11.9931C16.75 11.9954 16.75 11.9977 16.75 12C16.75 12.0023 16.75 12.0046 16.75 12.0069C16.7491 12.1061 16.7289 12.2007 16.6931 12.2871C16.6573 12.3735 16.6047 12.4547 16.5352 12.5254" fill="#797D86"/>
<path d="M16.5298 12.5308L12.5303 16.5303C12.2374 16.8232 11.7626 16.8232 11.4697 16.5303" fill="#797D86"/>
<path fill-rule="evenodd" clip-rule="evenodd" d="M12 22C17.5228 22 22 17.5228 22 12C22 6.47715 17.5228 2 12 2C6.47715 2 2 6.47715 2 12C2 17.5228 6.47715 22 12 22ZM12 20.5C16.6944 20.5 20.5 16.6944 20.5 12C20.5 7.30558 16.6944 3.5 12 3.5C7.30558 3.5 3.5 7.30558 3.5 12C3.5 16.6944 7.30558 20.5 12 20.5Z" fill="#797D86"/>
</svg>
