<svg width="24" height="24" viewBox="0 0 24 24" fill="none" xmlns="http://www.w3.org/2000/svg">
<g clip-path="url(#clip0)">
<path d="M1 11.5936L10 6.68454L10 23L1 23L1 11.5936Z" stroke="white" stroke-width="2"/>
<path d="M23 19L23 23L15 23L15 19L23 19Z" stroke="white" stroke-width="2"/>
<path d="M7 1L10 1L10 6.88197L7 8.38197L7 1Z" stroke="white" stroke-width="2"/>
<path d="M22 11L22 13L10 13L10 11L22 11Z" fill="white"/>
<path d="M16 15L16 17L10 17L10 15L16 15Z" fill="white"/>
<path d="M24 22L24 24L-8.74228e-08 24L0 22L24 22Z" fill="white"/>
<path d="M19 9C20.6569 9 22 10.3431 22 12L22 19L16 19L16 12C16 10.3431 17.3431 9 19 9Z" stroke="white" stroke-width="2"/>
<circle cx="4" cy="19" r="1" fill="white"/>
<circle cx="4" cy="16" r="1" fill="white"/>
</g>
<defs>
<clipPath id="clip0">
<rect width="24" height="24" fill="white"/>
</clipPath>
</defs>
</svg>
