<svg width="24" height="24" viewBox="0 0 24 24" fill="none" xmlns="http://www.w3.org/2000/svg">
<path fill-rule="evenodd" clip-rule="evenodd" d="M2 20C2 19.4477 2.3198 19 2.71429 19L21.2857 19C21.6802 19 22 19.4477 22 20C22 20.5523 21.6802 21 21.2857 21L2.71429 21C2.3198 21 2 20.5523 2 20Z" fill="white"/>
<path fill-rule="evenodd" clip-rule="evenodd" d="M13.0246 15.4996C13.0246 16.0519 12.5768 16.4996 12.0246 16.4996C11.4723 16.4996 11.0246 16.0519 11.0246 15.4996L11.0246 6.65297L8.45518 9.20842C8.0636 9.59788 7.43043 9.59615 7.04097 9.20457C6.65151 8.81298 6.65323 8.17982 7.04482 7.79036L11.3174 3.54101C11.7089 3.15158 12.342 3.15326 12.7315 3.54475L16.9589 7.79411C17.3484 8.18564 17.3468 8.8188 16.9553 9.20832C16.5637 9.59783 15.9306 9.5962 15.5411 9.20467L13.0246 6.67513L13.0246 15.4996Z" fill="white"/>
</svg>
