<svg width="24" height="24" viewBox="0 0 24 24" fill="none" xmlns="http://www.w3.org/2000/svg">
<path d="M12 16.2405C12.5304 16.2405 13.0391 16.4512 13.4142 16.8263C13.7893 17.2013 14 17.71 14 18.2405C14 18.7709 13.7893 19.2796 13.4142 19.6547C13.0391 20.0298 12.5304 20.2405 12 20.2405C11.4696 20.2405 10.9609 20.0298 10.5858 19.6547C10.2107 19.2796 10 18.7709 10 18.2405C10 17.71 10.2107 17.2013 10.5858 16.8263C10.9609 16.4512 11.4696 16.2405 12 16.2405ZM12 10.2405C12.5304 10.2405 13.0391 10.4512 13.4142 10.8263C13.7893 11.2013 14 11.71 14 12.2405C14 12.7709 13.7893 13.2796 13.4142 13.6547C13.0391 14.0298 12.5304 14.2405 12 14.2405C11.4696 14.2405 10.9609 14.0298 10.5858 13.6547C10.2107 13.2796 10 12.7709 10 12.2405C10 11.71 10.2107 11.2013 10.5858 10.8263C10.9609 10.4512 11.4696 10.2405 12 10.2405V10.2405ZM12 4.24048C12.5304 4.24048 13.0391 4.45119 13.4142 4.82626C13.7893 5.20134 14 5.71005 14 6.24048C14 6.77091 13.7893 7.27962 13.4142 7.65469C13.0391 8.02976 12.5304 8.24048 12 8.24048C11.4696 8.24048 10.9609 8.02976 10.5858 7.65469C10.2107 7.27962 10 6.77091 10 6.24048C10 5.71005 10.2107 5.20134 10.5858 4.82626C10.9609 4.45119 11.4696 4.24048 12 4.24048Z" fill="#303236"/>
</svg>
