<svg width="24" height="24" viewBox="0 0 24 24" fill="none" xmlns="http://www.w3.org/2000/svg">
<path d="M1 4C1 3.44772 1.44772 3 2 3H8V7H2C1.44772 7 1 6.55228 1 6V4Z" stroke="white" stroke-width="2"/>
<path d="M1 11C1 10.4477 1.44772 10 2 10H8V14H2C1.44772 14 1 13.5523 1 13V11Z" stroke="white" stroke-width="2"/>
<path d="M1 18C1 17.4477 1.44772 17 2 17H13V21H2C1.44772 21 1 20.5523 1 20V18Z" stroke="white" stroke-width="2"/>
<path d="M17.6948 3.73679L17.6948 3.73679C18.0125 4.81459 19.2436 5.32452 20.2303 4.78703L20.4854 4.64809C21.0447 4.34344 21.6566 4.95531 21.3519 5.51459L22.2301 5.99293L21.3519 5.51459L21.213 5.76967C20.6755 6.75642 21.1854 7.98749 22.2632 8.30517L22.5418 8.38729C23.1527 8.56735 23.1527 9.43265 22.5418 9.61271L22.2632 9.69483C21.1854 10.0125 20.6755 11.2436 21.213 12.2303L21.3519 12.4854C21.6566 13.0447 21.0447 13.6566 20.4854 13.3519L20.0071 14.2301L20.4854 13.3519L20.2303 13.213C19.2436 12.6755 18.0125 13.1854 17.6948 14.2632L18.654 14.5459L17.6948 14.2632L17.6127 14.5418C17.4326 15.1527 16.5674 15.1527 16.3873 14.5418L16.3052 14.2632C15.9875 13.1854 14.7564 12.6755 13.7697 13.213L13.5146 13.3519L13.9929 14.2301L13.5146 13.3519C12.9553 13.6566 12.3434 13.0447 12.6481 12.4854L12.787 12.2303C13.3245 11.2436 12.8146 10.0125 11.7368 9.69483L11.4582 9.61271C10.8473 9.43265 10.8473 8.56735 11.4582 8.38729L11.7368 8.30517L11.4541 7.34597L11.7368 8.30517C12.8146 7.98749 13.3245 6.75643 12.787 5.76967L12.6481 5.51459C12.3434 4.9553 12.9553 4.34344 13.5146 4.64809L13.7697 4.78703L14.1976 4.00138L13.7697 4.78703C14.7564 5.32452 15.9875 4.8146 16.3052 3.73679L16.3873 3.45818C16.5674 2.84727 17.4326 2.84728 17.6127 3.45818L17.6948 3.73679Z" stroke="white" stroke-width="2"/>
<path d="M16 9C16 8.44772 16.4477 8 17 8C17.5523 8 18 8.44772 18 9C18 9.55228 17.5523 10 17 10C16.4477 10 16 9.55228 16 9Z" stroke="white" stroke-width="2"/>
</svg>
