<svg width="24" height="24" viewBox="0 0 24 24" fill="none" xmlns="http://www.w3.org/2000/svg">
<path d="M18.9415 8.35L16.1515 11.14C15.8315 11.46 16.0515 12 16.5015 12H18.2915C18.2915 15.31 15.6015 18 12.2915 18C11.5015 18 10.7315 17.85 10.0415 17.56C9.68153 17.41 9.27153 17.52 9.00153 17.79C8.49153 18.3 8.67153 19.16 9.34153 19.43C10.2515 19.8 11.2515 20 12.2915 20C16.7115 20 20.2915 16.42 20.2915 12H22.0815C22.5315 12 22.7515 11.46 22.4315 11.15L19.6415 8.36C19.4515 8.16 19.1315 8.16 18.9415 8.35V8.35ZM6.29153 12C6.29153 8.69 8.98153 6 12.2915 6C13.0815 6 13.8515 6.15 14.5415 6.44C14.9015 6.59 15.3115 6.48 15.5815 6.21C16.0915 5.7 15.9115 4.84 15.2415 4.57C14.3315 4.2 13.3315 4 12.2915 4C7.87153 4 4.29153 7.58 4.29153 12H2.50153C2.05153 12 1.83153 12.54 2.15153 12.85L4.94153 15.64C5.14153 15.84 5.45153 15.84 5.65153 15.64L8.44153 12.85C8.75153 12.54 8.53153 12 8.08153 12L6.29153 12V12Z" fill="#18191B"/>
</svg>
