<svg width="24" height="24" viewBox="0 0 24 24" fill="none" xmlns="http://www.w3.org/2000/svg">
<path fill-rule="evenodd" clip-rule="evenodd" d="M11.7094 9.45389C11.7475 9.41569 11.7928 9.38538 11.8426 9.3647C11.8925 9.34402 11.9459 9.33337 11.9998 9.33337C12.0538 9.33337 12.1072 9.34402 12.1571 9.3647C12.2069 9.38538 12.2522 9.41569 12.2903 9.45389L17.2129 14.3765C17.2899 14.4535 17.3332 14.558 17.3332 14.6669C17.3332 14.7759 17.2899 14.8803 17.2129 14.9574C17.1358 15.0344 17.0314 15.0777 16.9224 15.0777C16.8135 15.0777 16.709 15.0344 16.632 14.9574L11.9998 10.3244L7.36767 14.9574C7.29064 15.0344 7.18617 15.0777 7.07724 15.0777C6.9683 15.0777 6.86383 15.0344 6.78681 14.9574C6.70978 14.8803 6.6665 14.7759 6.6665 14.6669C6.6665 14.558 6.70978 14.4535 6.78681 14.3765L11.7094 9.45389Z" fill="#18191B" stroke="#18191B"/>
</svg>
