<svg width="24" height="24" viewBox="0 0 24 24" fill="none" xmlns="http://www.w3.org/2000/svg">
<path fill-rule="evenodd" clip-rule="evenodd" d="M16.4022 11.9254C18.8668 11.9254 20.8649 9.92739 20.8649 7.4627C20.8649 4.99802 18.8668 3 16.4022 3C13.9375 3 11.9395 4.99802 11.9395 7.4627C11.9395 9.92739 13.9375 11.9254 16.4022 11.9254ZM16.4022 9.92541C17.7623 9.92541 18.8649 8.82282 18.8649 7.4627C18.8649 6.10259 17.7623 5 16.4022 5C15.042 5 13.9395 6.10259 13.9395 7.4627C13.9395 8.82282 15.042 9.92541 16.4022 9.92541Z" fill="white"/>
<path fill-rule="evenodd" clip-rule="evenodd" d="M6.70907 12.5105C9.17349 12.5105 11.1713 10.5127 11.1713 8.0483C11.1713 5.58387 9.17349 3.58606 6.70907 3.58606C4.24464 3.58606 2.24683 5.58387 2.24683 8.0483C2.24683 10.5127 4.24464 12.5105 6.70907 12.5105ZM6.70907 10.5105C8.06892 10.5105 9.17131 9.40816 9.17131 8.0483C9.17131 6.68844 8.06892 5.58606 6.70907 5.58606C5.34921 5.58606 4.24683 6.68844 4.24683 8.0483C4.24683 9.40816 5.34921 10.5105 6.70907 10.5105Z" fill="white"/>
<path d="M22.2512 20.9022C23.3008 20.9022 24.1377 20.0453 23.8902 19.0252C23.3496 16.7963 21.6925 13.3771 16.6125 13.3771C11.2104 13.3771 9.45161 16.7998 8.87898 19.0286C8.61786 20.0449 9.4532 20.9022 10.5025 20.9022H22.2512Z" fill="white"/>
<path d="M7.78173 13.3771C8.87162 13.3771 9.80395 13.5345 10.6015 13.8037C9.86028 14.2798 9.2651 14.8388 8.79756 15.4378C8.4856 15.3985 8.14783 15.3771 7.78173 15.3771C5.54453 15.3771 4.26504 16.068 3.48598 16.8127C2.84725 17.4233 2.4365 18.176 2.17635 18.9022H7.39638C7.32275 19.6614 7.39901 20.3571 7.58781 20.9022H1.67181C0.622467 20.9022 -0.212876 20.0449 0.0482489 19.0286C0.620879 16.7998 2.37968 13.3771 7.78173 13.3771Z" fill="white"/>
</svg>
