<svg width="24" height="24" viewBox="0 0 24 24" fill="none" xmlns="http://www.w3.org/2000/svg">
<path fill-rule="evenodd" clip-rule="evenodd" d="M20.0001 5.41421L15.7072 9.70711L14.293 8.29289L18.5859 4L16.0001 4C15.4478 4 15.0001 3.55228 15.0001 3C15.0001 2.44772 15.4478 2 16.0001 2L22.0001 2V8C22.0001 8.55228 21.5524 9 21.0001 9C20.4478 9 20.0001 8.55228 20.0001 8V5.41421Z" fill="#494B50"/>
<path fill-rule="evenodd" clip-rule="evenodd" d="M20 20V12H22V22H12V20H20Z" fill="#494B50"/>
<path fill-rule="evenodd" clip-rule="evenodd" d="M4 4L4 12H2L2 2L12 2V4L4 4Z" fill="#494B50"/>
<path fill-rule="evenodd" clip-rule="evenodd" d="M8 20.0001C8.55228 20.0001 9 20.4478 9 21.0001C9 21.5524 8.55228 22.0001 8 22.0001H2L2 16.0001C2 15.4478 2.44772 15.0001 3 15.0001C3.55228 15.0001 4 15.4478 4 16.0001L4 18.5859L8.29289 14.293L9.70711 15.7072L5.41421 20.0001H8Z" fill="#494B50"/>
</svg>
