<svg width="16" height="16" viewBox="0 0 16 16" fill="none" xmlns="http://www.w3.org/2000/svg">
<path d="M9 11C9 11.5523 8.55228 12 8 12H6C5.44772 12 5 11.5523 5 11C5 10.4477 5.44772 10 6 10H8C8.55228 10 9 10.4477 9 11Z" fill="#18191B"/>
<path d="M10 9C10.5523 9 11 8.55229 11 8C11 7.44772 10.5523 7 10 7L6 7C5.44772 7 5 7.44772 5 8C5 8.55228 5.44772 9 6 9H10Z" fill="#18191B"/>
<path fill-rule="evenodd" clip-rule="evenodd" d="M6 1C6 0.447715 6.44772 0 7 0H9C9.55228 0 10 0.447715 10 1V2.99999H12V1H13.5C14.3284 1 15 1.67157 15 2.5V14.5C15 15.3284 14.3284 16 13.5 16H2.5C1.67157 16 1 15.3284 1 14.5V2.5C1 1.67157 1.67157 1 2.5 1H4V2.99999H6V1ZM6 2.99999L3 3V14H13V3L10 2.99999C10 3.55227 9.55228 4 9 4H7C6.44772 4 6 3.55227 6 2.99999Z" fill="#18191B"/>
</svg>
