<svg width="24" height="24" viewBox="0 0 24 24" fill="none" xmlns="http://www.w3.org/2000/svg">
<path d="M13 15C13 15.5523 12.5523 16 12 16L10 16C9.44772 16 9 15.5523 9 15C9 14.4477 9.44772 14 10 14L12 14C12.5523 14 13 14.4477 13 15Z" fill="#303236"/>
<path d="M14 13C14.5523 13 15 12.5523 15 12C15 11.4477 14.5523 11 14 11L10 11C9.44772 11 9 11.4477 9 12C9 12.5523 9.44772 13 10 13L14 13Z" fill="#303236"/>
<path fill-rule="evenodd" clip-rule="evenodd" d="M10 5C10 4.44772 10.4477 4 11 4L13 4C13.5523 4 14 4.44772 14 5V6.99999H16V5H17.5C18.3284 5 19 5.67157 19 6.5V18.5C19 19.3284 18.3284 20 17.5 20H6.5C5.67157 20 5 19.3284 5 18.5L5 6.5C5 5.67157 5.67157 5 6.5 5H8V6.99999L10 6.99999V5ZM10 6.99999L7 7L7 18H17V7L14 6.99999C14 7.55227 13.5523 8 13 8L11 8C10.4477 8 10 7.55227 10 6.99999Z" fill="#303236"/>
</svg>
