<svg width="24" height="24" viewBox="0 0 24 24" fill="none" xmlns="http://www.w3.org/2000/svg">
<path fill-rule="evenodd" clip-rule="evenodd" d="M5.66789 5.66753C6.05842 5.277 6.69158 5.277 7.08211 5.66753L12.3748 10.9602L17.6676 5.66753C18.0581 5.277 18.6912 5.277 19.0818 5.66753C19.4723 6.05805 19.4723 6.69122 19.0818 7.08174L13.789 12.3745L19.0818 17.6672C19.4723 18.0577 19.4723 18.6909 19.0818 19.0814C18.6912 19.4719 18.0581 19.4719 17.6676 19.0814L12.3748 13.7887L7.08211 19.0814C6.69158 19.4719 6.05842 19.4719 5.66789 19.0814C5.27737 18.6909 5.27737 18.0577 5.66789 17.6672L10.9606 12.3745L5.66789 7.08174C5.27737 6.69122 5.27737 6.05805 5.66789 5.66753Z" fill="#FF0000"/>
</svg>
