<svg width="24" height="24" viewBox="0 0 24 24" fill="none" xmlns="http://www.w3.org/2000/svg">
<path d="M6.98437 6.00781C6.98437 5.45121 7.43559 5 7.99219 5L19.9922 5C20.5488 5 21 5.45121 21 6.00781C21 6.56441 20.5488 7.01563 19.9922 7.01563L7.99219 7.01563C7.43559 7.01563 6.98437 6.56441 6.98437 6.00781ZM7.99219 15.0313C7.43559 15.0313 6.98437 14.58 6.98437 14.0234C6.98437 13.4668 7.43559 13.0156 7.99219 13.0156L19.9922 13.0156C20.5488 13.0156 21 13.4668 21 14.0234C21 14.58 20.5488 15.0313 19.9922 15.0313L7.99219 15.0313ZM7.96875 11C7.42509 11 6.98437 10.5593 6.98437 10.0156C6.98437 9.47197 7.42509 9.03125 7.96875 9.03125L20.0156 9.03125C20.5593 9.03125 21 9.47197 21 10.0156C21 10.5593 20.5593 11 20.0156 11L7.96875 11ZM4.00781 7.01563C3.45121 7.01563 3 6.56441 3 6.00781C3 5.45121 3.45121 5 4.00781 5C4.56441 5 5.01562 5.45121 5.01562 6.00781C5.01562 6.56441 4.56441 7.01563 4.00781 7.01563ZM4.00781 15.0313C3.45121 15.0313 3 14.58 3 14.0234C3 13.4668 3.45121 13.0156 4.00781 13.0156C4.56441 13.0156 5.01562 13.4668 5.01562 14.0234C5.01562 14.58 4.56441 15.0313 4.00781 15.0313ZM3.98437 11C3.44072 11 3 10.5593 3 10.0156C3 9.47197 3.44072 9.03125 3.98437 9.03125H4.03125C4.57491 9.03125 5.01562 9.47197 5.01562 10.0156C5.01562 10.5593 4.57491 11 4.03125 11H3.98437Z" fill="white"/>
<path d="M6.98437 10.0234C6.98437 9.46684 7.43559 9.01563 7.99219 9.01563L19.9922 9.01563C20.5488 9.01563 21 9.46684 21 10.0234C21 10.58 20.5488 11.0313 19.9922 11.0313L7.99219 11.0313C7.43559 11.0313 6.98437 10.58 6.98437 10.0234ZM7.99219 19.0469C7.43559 19.0469 6.98437 18.5957 6.98437 18.0391C6.98437 17.4825 7.43559 17.0313 7.99219 17.0313L19.9922 17.0313C20.5488 17.0313 21 17.4825 21 18.0391C21 18.5957 20.5488 19.0469 19.9922 19.0469L7.99219 19.0469ZM7.96875 15.0156C7.42509 15.0156 6.98437 14.5749 6.98437 14.0313C6.98437 13.4876 7.42509 13.0469 7.96875 13.0469L20.0156 13.0469C20.5593 13.0469 21 13.4876 21 14.0313C21 14.5749 20.5593 15.0156 20.0156 15.0156L7.96875 15.0156ZM4.00781 11.0313C3.45121 11.0313 3 10.58 3 10.0234C3 9.46684 3.45121 9.01563 4.00781 9.01563C4.56441 9.01563 5.01562 9.46684 5.01562 10.0234C5.01562 10.58 4.56441 11.0313 4.00781 11.0313ZM4.00781 19.0469C3.45121 19.0469 3 18.5957 3 18.0391C3 17.4825 3.45121 17.0312 4.00781 17.0313C4.56441 17.0313 5.01562 17.4825 5.01562 18.0391C5.01562 18.5957 4.56441 19.0469 4.00781 19.0469ZM3.98437 15.0156C3.44072 15.0156 3 14.5749 3 14.0312C3 13.4876 3.44072 13.0469 3.98437 13.0469H4.03125C4.57491 13.0469 5.01562 13.4876 5.01562 14.0313C5.01562 14.5749 4.57491 15.0156 4.03125 15.0156H3.98437Z" fill="white"/>
</svg>
