<svg width="24" height="24" viewBox="0 0 24 24" fill="none" xmlns="http://www.w3.org/2000/svg">
<path fill-rule="evenodd" clip-rule="evenodd" d="M6 2L3.5 2C2.11929 2 1 3.11929 1 4.5L1 21.5C1 22.8807 2.11929 24 3.5 24L20.5 24C21.8807 24 23 22.8807 23 21.5L23 4.5C23 3.11929 21.8807 2 20.5 2L18 2V4L20.5 4C20.7761 4 21 4.22386 21 4.5L21 21.5C21 21.7761 20.7761 22 20.5 22L3.5 22C3.22386 22 3 21.7761 3 21.5L3 4.5C3 4.22386 3.22386 4 3.5 4L6 4V2Z" fill="white"/>
<rect width="2" height="5" rx="1" transform="matrix(4.37114e-08 -1 -1 -4.37114e-08 12 17)" fill="white"/>
<rect width="2" height="10" rx="1" transform="matrix(4.37114e-08 -1 -1 -4.37114e-08 17 14)" fill="white"/>
<rect width="2" height="10" rx="1" transform="matrix(4.37114e-08 -1 -1 -4.37114e-08 17 11)" fill="white"/>
<mask id="path-6-inside-1" fill="white">
<rect x="8" width="8" height="5" rx="1.5"/>
</mask>
<rect x="8" width="8" height="5" rx="1.5" stroke="white" stroke-width="4" mask="url(#path-6-inside-1)"/>
</svg>
