<svg width="24" height="24" viewBox="0 0 24 24" fill="none" xmlns="http://www.w3.org/2000/svg">
<path fill-rule="evenodd" clip-rule="evenodd" d="M21 6.5C21 8.433 19.433 10 17.5 10C16.5381 10 15.6669 9.61199 15.0342 8.98395L9.92404 11.7713C9.97382 12.0064 10 12.2501 10 12.5C10 12.6621 9.98898 12.8216 9.96766 12.9778L14.8603 15.2017C15.5019 14.4654 16.4466 14 17.5 14C19.433 14 21 15.567 21 17.5C21 19.433 19.433 21 17.5 21C15.567 21 14 19.433 14 17.5C14 17.338 14.011 17.1785 14.0323 17.0223L9.13967 14.7984C8.49803 15.5347 7.55335 16 6.5 16C4.567 16 3 14.433 3 12.5C3 10.567 4.567 9 6.5 9C7.46181 9 8.333 9.38796 8.96563 10.0159L14.0759 7.22849C14.0262 6.9935 14 6.74981 14 6.5C14 4.567 15.567 3 17.5 3C19.433 3 21 4.567 21 6.5ZM19 6.5C19 7.32843 18.3284 8 17.5 8C16.6716 8 16 7.32843 16 6.5C16 5.67157 16.6716 5 17.5 5C18.3284 5 19 5.67157 19 6.5ZM6.5 14C7.32843 14 8 13.3284 8 12.5C8 11.6716 7.32843 11 6.5 11C5.67157 11 5 11.6716 5 12.5C5 13.3284 5.67157 14 6.5 14ZM19 17.5C19 18.3284 18.3284 19 17.5 19C16.6716 19 16 18.3284 16 17.5C16 16.6716 16.6716 16 17.5 16C18.3284 16 19 16.6716 19 17.5Z" fill="#0057FF"/>
</svg>
