<svg width="24" height="24" viewBox="0 0 24 24" fill="none" xmlns="http://www.w3.org/2000/svg">
<path fill-rule="evenodd" clip-rule="evenodd" d="M17 19V9C17 8.44772 17.4477 8 18 8C18.5523 8 19 8.44772 19 9V19C19 20.1 18.1 21 17 21H7C5.9 21 5 20.1 5 19V9C5 8.44772 5.44772 8 6 8C6.55228 8 7 8.44772 7 9V19H17ZM19 6C19.5523 6 20 5.55228 20 5C20 4.44772 19.5523 4 19 4H16C15.7055 3.70546 14.47 3 14 3H10C9.53003 3 8.29454 3.70546 8 4H5C4.44772 4 4 4.44772 4 5C4 5.55228 4.44772 6 5 6H19ZM9 10C9 9.44772 9.44772 9 10 9C10.5523 9 11 9.44772 11 10V17C11 17.5523 10.5523 18 10 18C9.44772 18 9 17.5523 9 17V10ZM14 9C13.4477 9 13 9.44772 13 10V17C13 17.5523 13.4477 18 14 18C14.5523 18 15 17.5523 15 17V10C15 9.44772 14.5523 9 14 9Z" fill="#18191B"/>
</svg>
